# xmcd
#
# Track frame offsets: 
#        150
#        19417
#        40196
#        62271
#        81198
#        103503
#        123812
#        147862
#        166850
#
# Disc length: 2547 seconds
#
# Revision: 0
# Processed by: cddbd v1.5.2PL0 Copyright (c) Steve Scherf et al.
# Submitted via: ExactAudioCopy v0.99pb3
#
DISCID=6809f109
DTITLE=Hank Decken - Another Seven Days
DYEAR=2002
DGENRE=Rock
TTITLE0=Humans
TTITLE1=Calling Out
TTITLE2=Real As It Gets
TTITLE3=Simple
TTITLE4=Wishes To Heroes
TTITLE5=Hearsay Voodoo
TTITLE6=Interstate
TTITLE7=Stealing Time
TTITLE8=Walking Away
EXTD=
EXTT0=
EXTT1=
EXTT2=
EXTT3=
EXTT4=
EXTT5=
EXTT6=
EXTT7=
EXTT8=
PLAYORDER=
